<svg width="100" height="100" viewBox="0 0 100 100" fill="none" xmlns="http://www.w3.org/2000/svg">
<path d="M81.2502 81.2513H18.75V98.5365H81.2502V81.2513Z" fill="#2276BB"/>
<path d="M80.8909 79.1224H19.1074V85.5931H80.8909V79.1224Z" fill="#FDBE40"/>
<path d="M80.8928 79.1224H76.1917V85.5931H80.8928V79.1224Z" fill="#FFA912"/>
<path d="M23.8086 79.1224H19.1074V85.5931H23.8086V79.1224Z" fill="#FFA912"/>
<path d="M19.7076 98.5365H2.63721C1.98994 98.5365 1.46533 98.0119 1.46533 97.3646V60.8795C1.46533 60.2323 1.98994 59.7076 2.63721 59.7076H19.7078C20.3551 59.7076 20.8797 60.2323 20.8797 60.8795V97.3646C20.8795 98.0117 20.3549 98.5365 19.7076 98.5365Z" fill="#394D5C"/>
<path d="M19.7075 59.7076H15.8013C16.4485 59.7076 16.9731 60.2323 16.9731 60.8795V97.3646C16.9731 98.0119 16.4485 98.5365 15.8013 98.5365H19.7075C20.3548 98.5365 20.8794 98.0119 20.8794 97.3646V60.8795C20.8794 60.2323 20.3548 59.7076 19.7075 59.7076Z" fill="#133441"/>
<path d="M11.1718 75.8864C14.2991 75.8864 16.8343 73.3512 16.8343 70.2239C16.8343 67.0966 14.2991 64.5614 11.1718 64.5614C8.04448 64.5614 5.50928 67.0966 5.50928 70.2239C5.50928 73.3512 8.04448 75.8864 11.1718 75.8864Z" fill="#5A6571"/>
<path d="M11.1718 71.7407C12.0095 71.7407 12.6886 71.0616 12.6886 70.2239C12.6886 69.3862 12.0095 68.7071 11.1718 68.7071C10.3341 68.7071 9.65503 69.3862 9.65503 70.2239C9.65503 71.0616 10.3341 71.7407 11.1718 71.7407Z" fill="#7D8F9E"/>
<path d="M11.1718 93.6834C14.2991 93.6834 16.8343 91.1482 16.8343 88.0209C16.8343 84.8935 14.2991 82.3583 11.1718 82.3583C8.04448 82.3583 5.50928 84.8935 5.50928 88.0209C5.50928 91.1482 8.04448 93.6834 11.1718 93.6834Z" fill="#5A6571"/>
<path d="M11.1718 89.5376C12.0095 89.5376 12.6886 88.8585 12.6886 88.0208C12.6886 87.1831 12.0095 86.504 11.1718 86.504C10.3341 86.504 9.65503 87.1831 9.65503 88.0208C9.65503 88.8585 10.3341 89.5376 11.1718 89.5376Z" fill="#7D8F9E"/>
<path d="M61.7714 98.5365H38.2295C37.5822 98.5365 37.0576 98.0119 37.0576 97.3646V93.2369C37.0576 92.5896 37.5822 92.065 38.2295 92.065H61.7714C62.4187 92.065 62.9433 92.5896 62.9433 93.2369V97.3646C62.9433 98.0119 62.4187 98.5365 61.7714 98.5365Z" fill="#AABFCF"/>
<path d="M97.3636 98.5365H80.2932C79.6459 98.5365 79.1213 98.0119 79.1213 97.3646V60.8795C79.1213 60.2323 79.6459 59.7076 80.2932 59.7076H97.3636C98.0109 59.7076 98.5355 60.2323 98.5355 60.8795V97.3646C98.5355 98.0117 98.0109 98.5365 97.3636 98.5365Z" fill="#394D5C"/>
<path d="M97.3638 59.7076H93.4575C94.1048 59.7076 94.6294 60.2323 94.6294 60.8795V97.3646C94.6294 98.0119 94.1048 98.5365 93.4575 98.5365H97.3638C98.0111 98.5365 98.5357 98.0119 98.5357 97.3646V60.8795C98.5357 60.2323 98.0111 59.7076 97.3638 59.7076Z" fill="#133441"/>
<path d="M88.8285 75.8864C91.9559 75.8864 94.4911 73.3512 94.4911 70.2239C94.4911 67.0966 91.9559 64.5614 88.8285 64.5614C85.7012 64.5614 83.166 67.0966 83.166 70.2239C83.166 73.3512 85.7012 75.8864 88.8285 75.8864Z" fill="#5A6571"/>
<path d="M88.8286 71.7407C89.6663 71.7407 90.3454 71.0616 90.3454 70.2239C90.3454 69.3862 89.6663 68.7071 88.8286 68.7071C87.9909 68.7071 87.3118 69.3862 87.3118 70.2239C87.3118 71.0616 87.9909 71.7407 88.8286 71.7407Z" fill="#7D8F9E"/>
<path d="M88.8285 93.6834C91.9559 93.6834 94.4911 91.1482 94.4911 88.0209C94.4911 84.8935 91.9559 82.3583 88.8285 82.3583C85.7012 82.3583 83.166 84.8935 83.166 88.0209C83.166 91.1482 85.7012 93.6834 88.8285 93.6834Z" fill="#5A6571"/>
<path d="M88.8286 89.5376C89.6663 89.5376 90.3454 88.8585 90.3454 88.0208C90.3454 87.1831 89.6663 86.504 88.8286 86.504C87.9909 86.504 87.3118 87.1831 87.3118 88.0208C87.3118 88.8585 87.9909 89.5376 88.8286 89.5376Z" fill="#7D8F9E"/>
<path d="M75.8859 25.2872L75.8857 28.206C75.8857 28.5167 75.7623 28.8147 75.5426 29.0345L69.8506 34.7265C69.3929 35.1841 68.6509 35.1841 68.1933 34.7265L65.2744 31.8075C64.8167 31.3499 64.8167 30.6079 65.2744 30.1503L70.9664 24.4583C71.1861 24.2386 71.4842 24.1151 71.7951 24.1151H74.7141C75.3613 24.1153 75.8859 24.6401 75.8859 25.2872Z" fill="#394D5C"/>
<path d="M70.1658 38.164C69.791 38.164 69.416 38.0211 69.1299 37.7349L62.266 30.871C61.6939 30.299 61.6939 29.3714 62.266 28.7995C62.8382 28.2275 63.7656 28.2275 64.3377 28.7995L71.2017 35.6634C71.7738 36.2355 71.7738 37.163 71.2017 37.7351C70.9156 38.0211 70.5406 38.164 70.1658 38.164Z" fill="#FDBE40"/>
<path d="M24.1145 25.2872L24.1147 28.206C24.1147 28.5167 24.2381 28.8147 24.4579 29.0345L30.1499 34.7265C30.6075 35.1841 31.3495 35.1841 31.8071 34.7265L34.7261 31.8075C35.1837 31.3499 35.1837 30.6079 34.7261 30.1503L29.0341 24.4583C28.8143 24.2386 28.5163 24.1151 28.2053 24.1151H25.2864C24.6393 24.1153 24.1145 24.6401 24.1145 25.2872Z" fill="#394D5C"/>
<path d="M29.8347 38.164C30.2095 38.164 30.5845 38.0211 30.8706 37.7349L37.7347 30.8708C38.3068 30.2988 38.3068 29.3712 37.7347 28.7994C37.1624 28.2273 36.2351 28.2273 35.663 28.7994L28.7989 35.6633C28.2269 36.2353 28.2269 37.1629 28.7989 37.7349C29.0849 38.0211 29.4599 38.164 29.8347 38.164Z" fill="#FDBE40"/>
<path d="M62.943 4.70142H97.3637C98.0109 4.70142 98.5355 5.22603 98.5355 5.8733V16.4722C98.5355 17.1194 98.0109 17.644 97.3637 17.644H2.63672C1.98946 17.644 1.46484 17.1194 1.46484 16.4722V5.87349C1.46484 5.22622 1.98946 4.70161 2.63672 4.70161H37.0576L62.943 4.70142Z" fill="#87D0ED"/>
<path d="M97.3638 4.70142H93.4575C94.1048 4.70142 94.6294 5.22603 94.6294 5.8733V16.4722C94.6294 17.1194 94.1048 17.644 93.4575 17.644H97.3638C98.0111 17.644 98.5357 17.1194 98.5357 16.4722V5.8733C98.5357 5.22622 98.0111 4.70161 97.3638 4.70142Z" fill="#75B1D9"/>
<path d="M61.7712 7.93694H38.2297C37.5825 7.93694 37.0579 7.41233 37.0579 6.76506V2.6377C37.0579 1.99043 37.5825 1.46582 38.2297 1.46582H61.7714C62.4187 1.46582 62.9433 1.99043 62.9433 2.6377V6.76506C62.9431 7.41233 62.4185 7.93694 61.7712 7.93694Z" fill="#FDBE40"/>
<path d="M61.7713 1.46564H57.865C58.5123 1.46564 59.0369 1.99025 59.0369 2.63752V6.76507C59.0369 7.41234 58.5123 7.93695 57.865 7.93695H61.7713C62.4185 7.93695 62.9431 7.41234 62.9431 6.76507V2.63752C62.9431 1.99044 62.4185 1.46564 61.7713 1.46564Z" fill="#FFA912"/>
<path d="M61.7713 92.065H57.865C58.5123 92.065 59.0369 92.5896 59.0369 93.2369V97.3644C59.0369 98.0117 58.5123 98.5363 57.865 98.5363H61.7713C62.4185 98.5363 62.9431 98.0117 62.9431 97.3644V93.2369C62.9431 92.5898 62.4185 92.0652 61.7713 92.065Z" fill="#7D8F9E"/>
<path d="M98.5355 19.1089C99.3447 19.1089 100 18.453 100 17.644V4.70139C100 3.8924 99.3447 3.23654 98.5355 3.23654L64.4081 3.23634V1.46583C64.4081 0.656839 63.7524 0.000976562 62.9432 0.000976562H37.0576C36.2484 0.000976562 35.5927 0.656839 35.5927 1.46583V3.23654H18.0048C17.1956 3.23654 16.5399 3.8924 16.5399 4.70139C16.5399 5.51037 17.1956 6.16624 18.0048 6.16624H35.5927V7.93695C35.5927 8.74593 36.2484 9.4018 37.0576 9.4018H62.943C63.7522 9.4018 64.4079 8.74593 64.4079 7.93695V6.16604L97.0707 6.16624V16.1792H2.9297V6.16624H12.1713C12.9805 6.16624 13.6362 5.51037 13.6362 4.70139C13.6362 3.8924 12.9805 3.23654 12.1713 3.23654H1.46485C0.655667 3.23654 0 3.8924 0 4.70139V17.644C0 18.453 0.655667 19.1089 1.46485 19.1089H3.23595V38.6722C3.23595 38.6736 3.23575 38.6748 3.23575 38.6759C3.23575 38.6771 3.23595 38.6785 3.23595 38.6796V58.243H1.46485C0.655667 58.243 0 58.8989 0 59.7079V98.5361C0 99.3451 0.655667 100.001 1.46485 100.001H20.877C20.8776 100.001 20.8782 100.001 20.879 100.001H37.0576H62.9434H79.1214C79.122 100.001 79.1226 100.001 79.1234 100.001H98.5355C99.3447 100.001 100 99.3451 100 98.5361V59.7077C100 58.8987 99.3447 58.2428 98.5355 58.2428H96.765V19.1089H98.5355ZM61.4784 6.4721H38.5224V2.93068H61.4782V6.4721H61.4784ZM62.9434 90.6002H37.0574C36.2482 90.6002 35.5925 91.256 35.5925 92.065V97.0717H22.3438V87.0578H77.6566V97.0717H64.4083V92.065C64.4083 91.256 63.7524 90.6002 62.9434 90.6002ZM77.6566 80.5872V84.1281H22.3438V80.5872H77.6566ZM50.0004 76.3403L51.3176 77.6575H48.6832L50.0004 76.3403ZM79.1214 58.2428C78.3122 58.2428 77.6566 58.8987 77.6566 59.7077V77.6575H55.4606L51.4652 73.6622V57.0791L54.2719 54.2727C54.8442 53.7006 54.8442 52.7733 54.2721 52.2012C53.7 51.6291 52.7725 51.6289 52.2004 52.2012L48.9662 55.4352C48.965 55.4362 48.9641 55.4373 48.9629 55.4385L47.3467 57.0545C46.7744 57.6266 46.7744 58.5539 47.3465 59.126C47.6326 59.4121 48.0074 59.5551 48.3824 59.5551C48.4334 59.5551 48.4846 59.552 48.5353 59.5465V73.6622L44.54 77.6575H22.3438V59.7082C22.3438 58.8993 21.6882 58.2434 20.879 58.2434H19.1085V19.1089H27.2263V22.6505H24.1147C23.7263 22.6505 23.3538 22.8048 23.0788 23.0796C22.8042 23.3544 22.6499 23.7269 22.6499 24.1155L22.6501 28.6917C22.6501 29.0802 22.8044 29.4528 23.079 29.7275L28.907 35.5554L28.7989 35.6634C28.2269 36.2355 28.2269 37.163 28.7989 37.7351C29.0851 38.0212 29.4601 38.1642 29.8349 38.1642C30.2097 38.1642 30.5847 38.0212 30.8708 37.7351L32.0144 36.5915C32.0146 36.5914 32.0146 36.5914 32.0148 36.5912L36.591 32.015C36.5912 32.0148 36.5914 32.0146 36.5916 32.0144L37.7347 30.871C38.3068 30.2989 38.3068 29.3714 37.7347 28.7995C37.1625 28.2273 36.2351 28.2275 35.663 28.7995L35.5548 28.9073L30.156 23.5085V19.1089H69.8448V23.5083L64.4458 28.9073L64.3378 28.7993C63.7655 28.2273 62.8381 28.2273 62.2661 28.7993C61.694 29.3714 61.694 30.2989 62.2661 30.8708L69.1302 37.7349C69.4163 38.0209 69.7913 38.164 70.1661 38.164C70.5409 38.164 70.9159 38.021 71.202 37.7349C71.7741 37.1628 71.7741 36.2353 71.202 35.6632L71.094 35.5552L76.922 29.7273C77.1966 29.4527 77.3509 29.08 77.3509 28.6915L77.3511 24.1153C77.3511 23.7269 77.1968 23.3542 76.9222 23.0794C76.6474 22.8048 76.2749 22.6503 75.8862 22.6503H72.7747V19.1089H80.8929V38.6722C80.8929 38.6736 80.8927 38.6748 80.8927 38.6759C80.8927 38.6771 80.8929 38.6785 80.8929 38.6796V58.2426H79.1214V58.2428ZM15.0217 37.2113H7.3223L11.1719 30.9554L15.0217 37.2113ZM12.892 28.1603L16.1788 22.8194V33.5013L12.892 28.1603ZM15.0217 40.141L11.1721 46.3969L7.3223 40.141H15.0217ZM16.1788 43.851V54.5326L12.8922 49.1918L16.1788 43.851ZM11.1721 25.3651L7.3221 19.1089H15.0219L11.1721 25.3651ZM9.45199 28.1603L6.16565 33.5005V22.8198L9.45199 28.1603ZM9.45199 49.192L6.16565 54.5324V43.8517L9.45199 49.192ZM11.1721 51.9869L15.0221 58.2432H7.3221L11.1721 51.9869ZM30.9786 33.4837L25.5798 28.0847L25.5796 25.5802H28.0843L33.4831 30.979L30.9786 33.4837ZM66.5173 30.979L71.9163 25.58H74.421L74.4208 28.0845L69.022 33.4835L66.5173 30.979ZM83.8222 43.8515L87.1085 49.192L83.8222 54.5324V43.8515ZM84.9789 40.141H92.6783L88.8287 46.3969L84.9789 40.141ZM84.9789 37.2113L88.8285 30.9554L92.6783 37.2113H84.9789ZM83.8222 33.5005V22.8198L87.1085 28.1601L83.8222 33.5005ZM84.9787 19.1089H92.6785L88.8285 25.3651L84.9787 19.1089ZM88.8287 51.9869L92.6783 58.2426H84.979L88.8287 51.9869ZM90.5486 49.192L93.8353 43.8511V54.5328L90.5486 49.192ZM90.5486 28.1603L93.8353 22.8194V33.5013L90.5486 28.1603ZM2.9297 61.1729H19.4141V79.1185C19.4141 79.1198 19.4139 79.121 19.4139 79.1222C19.4139 79.1234 19.4141 79.1247 19.4141 79.1259V85.589C19.4141 85.5904 19.4139 85.5915 19.4139 85.5927C19.4139 85.5939 19.4141 85.5953 19.4141 85.5964V97.0717H2.9297V61.1729ZM38.5222 97.0717V93.5299H61.4784V97.0717H38.5222ZM97.0707 97.0717H80.5863V61.1725H82.349C82.3513 61.1725 82.3536 61.1729 82.356 61.1729C82.3585 61.1729 82.3611 61.1725 82.3636 61.1725H95.2943C95.2963 61.1725 95.298 61.1727 95.3 61.1727C95.3019 61.1727 95.3037 61.1725 95.3057 61.1725H97.0707V97.0717Z" fill="black"/>
<path d="M88.8285 63.0966C84.8984 63.0966 81.7012 66.2938 81.7012 70.2239C81.7012 74.154 84.8984 77.3515 88.8285 77.3515C92.7586 77.3515 95.9559 74.154 95.9559 70.2239C95.9559 66.2938 92.7586 63.0966 88.8285 63.0966ZM88.8285 74.4218C86.5139 74.4218 84.6309 72.5386 84.6309 70.2239C84.6309 67.9093 86.5141 66.0263 88.8285 66.0263C91.1432 66.0263 93.0262 67.9093 93.0262 70.2239C93.0262 72.5386 91.143 74.4218 88.8285 74.4218Z" fill="black"/>
<path d="M88.8286 71.7407C89.6663 71.7407 90.3454 71.0616 90.3454 70.2239C90.3454 69.3862 89.6663 68.7071 88.8286 68.7071C87.9909 68.7071 87.3118 69.3862 87.3118 70.2239C87.3118 71.0616 87.9909 71.7407 88.8286 71.7407Z" fill="black"/>
<path d="M88.8285 80.8927C84.8984 80.8927 81.7012 84.09 81.7012 88.0201C81.7012 91.9502 84.8984 95.1474 88.8285 95.1474C92.7586 95.1474 95.9559 91.9502 95.9559 88.0201C95.9559 84.09 92.7586 80.8927 88.8285 80.8927ZM88.8285 92.2177C86.5139 92.2177 84.6309 90.3347 84.6309 88.0201C84.6309 85.7054 86.5141 83.8224 88.8285 83.8224C91.1432 83.8224 93.0262 85.7054 93.0262 88.0201C93.0262 90.3347 91.143 92.2177 88.8285 92.2177Z" fill="black"/>
<path d="M88.8286 89.5376C89.6663 89.5376 90.3454 88.8585 90.3454 88.0208C90.3454 87.1831 89.6663 86.504 88.8286 86.504C87.9909 86.504 87.3118 87.1831 87.3118 88.0208C87.3118 88.8585 87.9909 89.5376 88.8286 89.5376Z" fill="black"/>
<path d="M11.1718 63.0966C7.24171 63.0966 4.04443 66.2938 4.04443 70.2239C4.04443 74.154 7.24171 77.3515 11.1718 77.3515C15.1019 77.3515 18.2994 74.154 18.2994 70.2239C18.2994 66.2938 15.1019 63.0966 11.1718 63.0966ZM11.1718 74.4218C8.85734 74.4218 6.97413 72.5386 6.97413 70.2239C6.97413 67.9093 8.85734 66.0263 11.1718 66.0263C13.4867 66.0263 15.3697 67.9093 15.3697 70.2239C15.3697 72.5386 13.4867 74.4218 11.1718 74.4218Z" fill="black"/>
<path d="M11.1718 71.7407C12.0095 71.7407 12.6886 71.0616 12.6886 70.2239C12.6886 69.3862 12.0095 68.7071 11.1718 68.7071C10.3341 68.7071 9.65503 69.3862 9.65503 70.2239C9.65503 71.0616 10.3341 71.7407 11.1718 71.7407Z" fill="black"/>
<path d="M11.1718 80.8927C7.24171 80.8927 4.04443 84.09 4.04443 88.0201C4.04443 91.9502 7.24171 95.1474 11.1718 95.1474C15.1019 95.1474 18.2994 91.9502 18.2994 88.0201C18.2994 84.09 15.1019 80.8927 11.1718 80.8927ZM11.1718 92.2177C8.85734 92.2177 6.97413 90.3347 6.97413 88.0201C6.97413 85.7054 8.85734 83.8224 11.1718 83.8224C13.4867 83.8224 15.3697 85.7054 15.3697 88.0201C15.3697 90.3347 13.4867 92.2177 11.1718 92.2177Z" fill="black"/>
<path d="M11.1718 89.5376C12.0095 89.5376 12.6886 88.8585 12.6886 88.0208C12.6886 87.1831 12.0095 86.504 11.1718 86.504C10.3341 86.504 9.65503 87.1831 9.65503 88.0208C9.65503 88.8585 10.3341 89.5376 11.1718 89.5376Z" fill="black"/>
</svg>
